<svg width="30" height="30" data-name="03 - Account" xmlns="http://www.w3.org/2000/svg"><path data-name="Path 217" d="M15 0a8 8 0 108 8 8 8 0 00-8-8zm0 2a6 6 0 11-6 6 6 6 0 016-6z" fill-rule="evenodd"/><path data-name="Path 218" d="M15 18.2c-5.657 0-10.558 1.175-13 2.82a3.865 3.865 0 00-2 3.08 3.865 3.865 0 002 3.08C4.442 28.825 9.343 30 15 30s10.558-1.175 13-2.82a3.865 3.865 0 002-3.08 3.865 3.865 0 00-2-3.08c-2.442-1.645-7.343-2.82-13-2.82zm0 2a26.973 26.973 0 0110.867 1.909 5.8 5.8 0 011.694 1.132 1.06 1.06 0 010 1.718 5.8 5.8 0 01-1.694 1.132A26.973 26.973 0 0115 28a26.973 26.973 0 01-10.867-1.909 5.8 5.8 0 01-1.694-1.132 1.06 1.06 0 010-1.718 5.8 5.8 0 011.694-1.132A26.973 26.973 0 0115 20.2z" fill-rule="evenodd"/></svg>