<svg xmlns="http://www.w3.org/2000/svg" viewBox="0 0 38.133 38.133"><path d="M35.459 9.015h-8.148V1.253a.625.625 0 00-.625-.625h-15.24a.625.625 0 00-.625.625v7.762H2.674a.627.627 0 00-.623.578L.002 36.834a.622.622 0 00.623.671h36.884a.624.624 0 00.623-.672l-2.049-27.24a.628.628 0 00-.624-.578zm-8.773 3.961c.316 0 .573.256.573.57a.573.573 0 01-1.146 0c0-.314.257-.57.573-.57zM12.071 1.879h13.99v7.137h-13.99V1.879zm-.625 11.097c.316 0 .573.256.573.57a.573.573 0 01-1.146 0c0-.314.257-.57.573-.57zM1.298 36.256l1.955-25.99h7.568v1.578a1.818 1.818 0 00-1.198 1.703c0 1.005.818 1.822 1.823 1.822s1.823-.817 1.823-1.822c0-.783-.501-1.447-1.198-1.703v-1.578h13.99v1.578a1.818 1.818 0 00-1.198 1.703c0 1.005.818 1.822 1.823 1.822a1.824 1.824 0 001.823-1.822c0-.783-.501-1.447-1.198-1.703v-1.578h7.569l1.955 25.99H1.298z" fill="#010002"/></svg>